<?xml version="1.0" encoding="utf-8"?>
<!-- Generator: Adobe Illustrator 22.0.0, SVG Export Plug-In . SVG Version: 6.00 Build 0)  -->
<svg version="1.1" id="Layer_1" xmlns="http://www.w3.org/2000/svg" xmlns:xlink="http://www.w3.org/1999/xlink" x="0px" y="0px"
	 viewBox="0 0 30.7 30.7" style="enable-background:new 0 0 30.7 30.7;" xml:space="preserve">
<style type="text/css">
	.st0{fill:none;stroke:#FFFFFF;stroke-width:0.25;stroke-linecap:round;stroke-miterlimit:10;}
	.st1{fill:#C14B2F;}
</style>
<title>earth</title>
<path class="st0" d="M29.6,11.2c-0.5,0.4-0.8-0.6-0.6-0.8c0,0,0.1-0.1,0.2-0.1c0-0.1,0.1-0.1,0.2-0.1c-0.2-0.6-0.5-1.2-0.8-1.8
	c-0.4,0.6-1.4,0.2-1.7-0.3c-0.6-0.9,0.7-0.6,1.1-0.6h0.1c-0.3-0.4-0.6-0.9-0.9-1.3c0,0.2,0,0.3,0,0.5c-0.1,0.5-1,0.5-1.5,0.6
	c-0.6,0.2-1.3,0.4-1.5,1c-0.1,0.3,0,0.5-0.3,0.7c-0.8,0.6-1.8-1.2-1.9-1.8s0.4-0.9,0-1.5c-0.3-0.6-0.8-1-1.5-1.1
	c-0.4-0.1-0.6,0-0.8-0.4c-0.3-0.9,1-0.6,1-0.7C20.7,2.9,21.6,3,22,3c0.4,0,1.8,0.2,1.8,0.2c0-0.1,0.1-0.1,0.1-0.2
	c-1.5-1.1-3.2-1.9-5.1-2.3c-4.5-1-9.3,0.1-12.9,3c-6.4,5.2-7.3,14.6-2,21c0,0,0,0,0,0c4,4.8,10.6,6.7,16.6,4.7
	c3.5-1.3,6.4-3.9,8.1-7.2c0.4-0.7,1.6-2.7,1-3.5c-0.7-0.8-1.1-1.9-1-3c0.1-0.6,0.7-0.9,0.9-1.4s-0.2-0.9-0.2-1.4
	c0.1-0.3,0.3-0.5,0.6-0.7C30.2,12.1,29.5,11.4,29.6,11.2z M26.2,22L26.2,22c-0.4,0.6-0.3,1.4-0.7,1.9s-0.9,0.4-1.2,0.8
	c-0.1,0.2-0.1,0.5-0.2,0.7c-0.1,0.2-0.3,0.5-0.5,0.6c-0.2,0.1-0.3,0.3-0.5,0.4c-0.1,0.2-0.3,0.3-0.4,0.5c-0.2,0.1-0.4,0.1-0.5,0.2
	c-0.2,0.1-0.4,0.4-0.4,0.6c0,0.1,0,0.2,0,0.3c0.1,0.2,0.6,0.3,0.3,0.5c-0.5,0.2-1,0.2-1.5,0.1c-0.2,0-0.3-0.1-0.5-0.2
	C20,28.3,20,28.2,19.9,28c-0.6-0.2-0.4-0.7-0.3-1.1s-0.1-0.6-0.1-0.9s0.1-0.6-0.2-0.9s-0.7-0.1-1-0.2c-0.5-0.1-0.7-0.8-1.2-1
	s-0.7-0.3-0.8-0.9c0-0.4,0.1-0.7,0.4-1c0.1-0.2,0.4-0.6,0-0.7c-0.2,0-0.5,0.1-0.7,0.1c-0.3,0-0.6-0.1-0.8-0.3
	c-0.3-0.1-0.5-0.3-0.8-0.3c-0.3-0.1-0.6,0-0.9-0.1c-0.3-0.1-0.5-0.1-0.8-0.1c-0.6,0.2-1.3,0.1-1.9-0.1c-0.4-0.3-0.7-0.6-1-1
	c-0.7,1.2-2-1.1-2.5-1.6c-0.6-0.5-1-1.2-1.1-2c0-0.6,0.6-1.8,0.4-2.3c-0.1-0.2-0.5-0.2-0.6-0.4c-0.5-0.7-0.2-2.5-1.5-2.6
	c-0.5,0-0.9,0.4-1,0.8c-0.1,0.2-1,2.5-1.3,1.9c-0.1-0.2,0.1-0.6,0.1-0.8c0-0.3,0-0.7,0-1c0-0.7,0.1-1.3,0.2-2
	c0.1-1.4,0.8-2.6,1.8-3.5c0.3-0.4,0.6-0.3,1-0.2c0.5,0.1,1,0.2,1.5,0.4C7.5,6.8,8.5,6,9.4,6.1c0.7,0.1,1.3,0.2,2,0.3
	c0.7-0.1,1.3-0.1,2,0c0.8,0.2,0.8-0.1,1.1-0.7c0.4-0.8,0.5-0.1,1,0.2s0.5,0.1,1,0c0.8-0.2,0.9,0.7,0.4,1.1c-0.3,0.2-0.6,0.3-0.9,0.4
	c-0.2,0.1-0.4,0.2-0.5,0.4c-0.2,0.3-0.7,0.3-0.9,0.7S13.5,9,13.6,9.4c0.1,0.6,1.1,0.7,1.5,0.8c0.3,0.1,0.6,0.2,0.9,0.3
	c0.7,0.1,0.7-0.7,0.8-1.2s0.2-1,0.8-1.1s1.1,0.7,1.8,0.7c0.3,0,0.7,0,1,0.2c0.3,0.2,0.5,0.8,0.8,1c0.2,0.1,0.5,0.3,0.5,0.5
	c0.1,0.9-1.3,0.7-1.8,0.9c-0.3,0.1-0.2,0.8,0.2,0.7c0.2-0.1,0.4,0,0.5,0.2c0,0,0,0,0,0c0,0,0,0,0,0.1c0.2,0.9-1.9,0.6-2,0.8
	s0,0.4-0.4,0.7c-0.3,0.2-0.6,0.4-0.9,0.8c-0.2,0.3-0.2,0.7-0.5,1c-0.3,0.3-0.9,0.6-0.8,1.1c0,0.3,0.4,0.6,0.3,0.9
	c-0.2,0.6-0.7,0.2-1-0.1s-0.7-0.8-1.3-0.5c-0.2,0.1-0.2,0.2-0.3,0.4c-0.3,0.4-0.7,0-1.1,0.2c-0.8,0.3-0.8,2.4,0.4,1.9
	c0.1,0,0.3-0.1,0.4-0.2c0.1-0.6,0.7-0.7,1.2-0.9c0.1,0,0.2,0,0.2,0.1c0.2,0.2,0.2,0.4,0,0.6c-0.1,0.2-0.2,0.3-0.2,0.5
	c0,0.1-0.2,0.1-0.1,0.2c0.2,0.3,0.7-0.4,1-0.2c0.3,0.2,0.3,0.5,0.3,0.7s0.2,0.4,0.4,0.3c0,0,1,0,0.9-0.1c-0.5-0.2,0.6-0.7,1.1-0.9
	c0.4,0,0.8,0,1.3,0c0.4,0,0.7-0.3,1.1-0.3s0.8,0.4,1.2,0.4c0.3,0,0.7,0,1,0c0.4,0.1,0.5,0.6,0.9,0.8s0.9-0.1,1.4-0.1s1.2,0,1.5,0.5
	C26.6,21.3,26.5,21.7,26.2,22z"/>
<g transform="translate(0,-952.36218)">
	<path class="st1" d="M0.9,953c-0.2,0-0.3,0.2-0.3,0.4v28.5c0,0.2,0.2,0.4,0.3,0.4h28.7c0.2,0,0.3-0.2,0.3-0.4s-0.2-0.4-0.3-0.4H1.3
		v-28.2C1.3,953.1,1.1,953,0.9,953z M16.9,956c0,0.2,0.1,0.3,0.3,0.4l2.5,0.7l-14.1,7c-0.2,0.1-0.3,0.3-0.2,0.5
		c0.1,0.2,0.3,0.3,0.5,0.1l14.2-7l-0.7,2.7c0,0.2,0.1,0.4,0.2,0.4c0.2,0,0.4-0.1,0.4-0.3l0.9-3.4c0-0.2-0.1-0.4-0.2-0.4l-3.3-0.9
		C17.1,955.6,16.9,955.8,16.9,956L16.9,956z M23.5,961.5c-0.2,0-0.3,0.2-0.3,0.4v15.7c0,0.2,0.2,0.4,0.3,0.4h2.7
		c0.2,0,0.3-0.2,0.3-0.4v-15.7c0-0.2-0.2-0.4-0.3-0.4H23.5z M23.8,962.2h2.1v15h-2.1V962.2z M17.3,963.7c-0.2,0-0.3,0.2-0.3,0.4
		v13.5c0,0.2,0.2,0.4,0.3,0.4h2.7c0.2,0,0.3-0.2,0.3-0.4V964c0-0.2-0.2-0.4-0.3-0.4H17.3z M17.7,964.4h2.1v12.8h-2.1V964.4z
		 M11.2,965.8c-0.2,0-0.3,0.2-0.3,0.4v11.4c0,0.2,0.2,0.4,0.3,0.4h2.7c0.2,0,0.3-0.2,0.3-0.4v-11.4c0-0.2-0.2-0.4-0.3-0.4H11.2z
		 M11.5,966.5h2.1v10.7h-2.1V966.5z M5,967.9c-0.2,0-0.3,0.2-0.3,0.4v9.3c0,0.2,0.2,0.4,0.3,0.4h2.7c0.2,0,0.3-0.2,0.3-0.4v-9.3
		c0-0.2-0.2-0.4-0.3-0.4H5z M5.4,968.7h2.1v8.6H5.4V968.7z"/>
</g>
</svg>
