<?xml version="1.0" encoding="utf-8"?>
<!-- Generator: Adobe Illustrator 22.0.0, SVG Export Plug-In . SVG Version: 6.00 Build 0)  -->
<svg version="1.1" id="Layer_1" xmlns="http://www.w3.org/2000/svg" xmlns:xlink="http://www.w3.org/1999/xlink" x="0px" y="0px"
	 viewBox="0 0 30.7 30.7" style="enable-background:new 0 0 30.7 30.7;" xml:space="preserve">
<style type="text/css">
	.st0{fill:#fbb03b;stroke:#FFFFFF;stroke-width:0.8;stroke-miterlimit:10;}
	.st1{fill:#fbb03b;stroke:#FFFFFF;stroke-width:0.9;stroke-miterlimit:10;}
</style>
<title>earth</title>
<path class="st0" d="M27.4,28.6V1.7c0-0.6-0.5-1.1-1.1-1.1H5c-0.6,0-1.1,0.5-1.1,1.1v26.8c0,0.6,0.5,1.1,1.1,1.1h21.3
	C26.9,29.7,27.4,29.2,27.4,28.6z M12.8,2.1h5.7v2.2h-5.7V2.1z M26,28.2H5.4V2.1h6V5c0,0.4,0.3,0.7,0.7,0.7h7.1
	c0.4,0,0.7-0.3,0.7-0.7V2.1h6V28.2z"/>
<rect x="6.4" y="12.7" class="st1" width="8.5" height="1.5"/>
<polygon class="st1" points="19.6,13.8 17.5,12 16.5,13.2 19.7,16 23.7,11.3 22.6,10.3 "/>
<rect x="6.4" y="21" class="st1" width="8.5" height="1.5"/>
<polygon class="st1" points="19.6,22.2 17.5,20.4 16.5,21.5 19.7,24.3 23.7,19.7 22.6,18.7 "/>
</svg>
