<?xml version="1.0" encoding="utf-8"?>
<!-- Generator: Adobe Illustrator 22.0.0, SVG Export Plug-In . SVG Version: 6.00 Build 0)  -->
<svg version="1.1" id="Layer_1" xmlns="http://www.w3.org/2000/svg" xmlns:xlink="http://www.w3.org/1999/xlink" x="0px" y="0px"
	 viewBox="0 0 30.7 30.7" style="enable-background:new 0 0 30.7 30.7;" xml:space="preserve">
<style type="text/css">
	.st0{fill:none;stroke:#FFFFFF;stroke-width:0.25;stroke-linecap:round;stroke-miterlimit:10;}
	.st1{fill:#C14B2F;stroke:#FFFFFF;stroke-width:0.2;stroke-miterlimit:10;}
	.st2{fill:#C14B2F;}
</style>
<title>earth</title>
<path class="st0" d="M29.6,11.2c-0.5,0.4-0.8-0.6-0.6-0.8c0,0,0.1-0.1,0.2-0.1c0-0.1,0.1-0.1,0.2-0.1c-0.2-0.6-0.5-1.2-0.8-1.8
	c-0.4,0.6-1.4,0.2-1.7-0.3c-0.6-0.9,0.7-0.6,1.1-0.6h0.1c-0.3-0.4-0.6-0.9-0.9-1.3c0,0.2,0,0.3,0,0.5c-0.1,0.5-1,0.5-1.5,0.6
	c-0.6,0.2-1.3,0.4-1.5,1c-0.1,0.3,0,0.5-0.3,0.7c-0.8,0.6-1.8-1.2-1.9-1.8s0.4-0.9,0-1.5c-0.3-0.6-0.8-1-1.5-1.1
	c-0.4-0.1-0.6,0-0.8-0.4c-0.3-0.9,1-0.6,1-0.7C20.7,2.9,21.6,3,22,3c0.4,0,1.8,0.2,1.8,0.2c0-0.1,0.1-0.1,0.1-0.2
	c-1.5-1.1-3.2-1.9-5.1-2.3c-4.5-1-9.3,0.1-12.9,3c-6.4,5.2-7.3,14.6-2,21c0,0,0,0,0,0c4,4.8,10.6,6.7,16.6,4.7
	c3.5-1.3,6.4-3.9,8.1-7.2c0.4-0.7,1.6-2.7,1-3.5c-0.7-0.8-1.1-1.9-1-3c0.1-0.6,0.7-0.9,0.9-1.4s-0.2-0.9-0.2-1.4
	c0.1-0.3,0.3-0.5,0.6-0.7C30.2,12.1,29.5,11.4,29.6,11.2z M26.2,22L26.2,22c-0.4,0.6-0.3,1.4-0.7,1.9s-0.9,0.4-1.2,0.8
	c-0.1,0.2-0.1,0.5-0.2,0.7c-0.1,0.2-0.3,0.5-0.5,0.6c-0.2,0.1-0.3,0.3-0.5,0.4c-0.1,0.2-0.3,0.3-0.4,0.5c-0.2,0.1-0.4,0.1-0.5,0.2
	c-0.2,0.1-0.4,0.4-0.4,0.6c0,0.1,0,0.2,0,0.3c0.1,0.2,0.6,0.3,0.3,0.5c-0.5,0.2-1,0.2-1.5,0.1c-0.2,0-0.3-0.1-0.5-0.2
	C20,28.3,20,28.2,19.9,28c-0.6-0.2-0.4-0.7-0.3-1.1s-0.1-0.6-0.1-0.9s0.1-0.6-0.2-0.9s-0.7-0.1-1-0.2c-0.5-0.1-0.7-0.8-1.2-1
	s-0.7-0.3-0.8-0.9c0-0.4,0.1-0.7,0.4-1c0.1-0.2,0.4-0.6,0-0.7c-0.2,0-0.5,0.1-0.7,0.1c-0.3,0-0.6-0.1-0.8-0.3
	c-0.3-0.1-0.5-0.3-0.8-0.3c-0.3-0.1-0.6,0-0.9-0.1c-0.3-0.1-0.5-0.1-0.8-0.1c-0.6,0.2-1.3,0.1-1.9-0.1c-0.4-0.3-0.7-0.6-1-1
	c-0.7,1.2-2-1.1-2.5-1.6c-0.6-0.5-1-1.2-1.1-2c0-0.6,0.6-1.8,0.4-2.3c-0.1-0.2-0.5-0.2-0.6-0.4c-0.5-0.7-0.2-2.5-1.5-2.6
	c-0.5,0-0.9,0.4-1,0.8c-0.1,0.2-1,2.5-1.3,1.9c-0.1-0.2,0.1-0.6,0.1-0.8c0-0.3,0-0.7,0-1c0-0.7,0.1-1.3,0.2-2
	c0.1-1.4,0.8-2.6,1.8-3.5c0.3-0.4,0.6-0.3,1-0.2c0.5,0.1,1,0.2,1.5,0.4C7.5,6.8,8.5,6,9.4,6.1c0.7,0.1,1.3,0.2,2,0.3
	c0.7-0.1,1.3-0.1,2,0c0.8,0.2,0.8-0.1,1.1-0.7c0.4-0.8,0.5-0.1,1,0.2s0.5,0.1,1,0c0.8-0.2,0.9,0.7,0.4,1.1c-0.3,0.2-0.6,0.3-0.9,0.4
	c-0.2,0.1-0.4,0.2-0.5,0.4c-0.2,0.3-0.7,0.3-0.9,0.7S13.5,9,13.6,9.4c0.1,0.6,1.1,0.7,1.5,0.8c0.3,0.1,0.6,0.2,0.9,0.3
	c0.7,0.1,0.7-0.7,0.8-1.2s0.2-1,0.8-1.1s1.1,0.7,1.8,0.7c0.3,0,0.7,0,1,0.2c0.3,0.2,0.5,0.8,0.8,1c0.2,0.1,0.5,0.3,0.5,0.5
	c0.1,0.9-1.3,0.7-1.8,0.9c-0.3,0.1-0.2,0.8,0.2,0.7c0.2-0.1,0.4,0,0.5,0.2c0,0,0,0,0,0c0,0,0,0,0,0.1c0.2,0.9-1.9,0.6-2,0.8
	s0,0.4-0.4,0.7c-0.3,0.2-0.6,0.4-0.9,0.8c-0.2,0.3-0.2,0.7-0.5,1c-0.3,0.3-0.9,0.6-0.8,1.1c0,0.3,0.4,0.6,0.3,0.9
	c-0.2,0.6-0.7,0.2-1-0.1s-0.7-0.8-1.3-0.5c-0.2,0.1-0.2,0.2-0.3,0.4c-0.3,0.4-0.7,0-1.1,0.2c-0.8,0.3-0.8,2.4,0.4,1.9
	c0.1,0,0.3-0.1,0.4-0.2c0.1-0.6,0.7-0.7,1.2-0.9c0.1,0,0.2,0,0.2,0.1c0.2,0.2,0.2,0.4,0,0.6c-0.1,0.2-0.2,0.3-0.2,0.5
	c0,0.1-0.2,0.1-0.1,0.2c0.2,0.3,0.7-0.4,1-0.2c0.3,0.2,0.3,0.5,0.3,0.7s0.2,0.4,0.4,0.3c0,0,1,0,0.9-0.1c-0.5-0.2,0.6-0.7,1.1-0.9
	c0.4,0,0.8,0,1.3,0c0.4,0,0.7-0.3,1.1-0.3s0.8,0.4,1.2,0.4c0.3,0,0.7,0,1,0c0.4,0.1,0.5,0.6,0.9,0.8s0.9-0.1,1.4-0.1s1.2,0,1.5,0.5
	C26.6,21.3,26.5,21.7,26.2,22z"/>
<g>
	<path class="st1" d="M16.9,18.8l7.5-4.4l5.5,4.2c0.2,0.1,0.4,0.1,0.5-0.1c0.1-0.2,0.1-0.4-0.1-0.5l-5.9-4.5L16.9,18l-8.3-2.9
		l-8.3,2.4C0.1,17.6,0,17.8,0.1,18c0.1,0.2,0.3,0.3,0.5,0.3l8.1-2.4L16.9,18.8z"/>
</g>
<rect x="18.9" y="22.2" class="st2" width="1.8" height="7.6"/>
<rect x="22.1" y="24.1" class="st2" width="1.8" height="5.8"/>
<rect x="15.8" y="25.7" class="st2" width="1.8" height="4.1"/>
<rect x="9.5" y="22.2" class="st2" width="1.8" height="7.6"/>
<rect x="12.7" y="24.1" class="st2" width="1.8" height="5.8"/>
<rect x="6.4" y="24.1" class="st2" width="1.8" height="5.8"/>
<rect x="3.2" y="23.9" class="st2" width="1.8" height="6"/>
<rect x="0.1" y="26.2" class="st2" width="1.8" height="3.6"/>
<rect x="18.3" y="8.1" class="st2" width="9.2" height="1.8"/>
<rect x="18.3" y="4.9" class="st2" width="4.7" height="1.8"/>
<rect x="18.3" y="1.7" class="st2" width="11.1" height="1.8"/>
<rect x="25.2" y="22.2" class="st2" width="1.8" height="7.6"/>
<rect x="28.4" y="24.1" class="st2" width="1.8" height="5.8"/>
<path class="st2" d="M5.8,1.3C3.1,1.3,1,3.4,1,6.1c0,2.6,2.1,4.8,4.8,4.8c1.6,0,2.9-0.8,3.8-1.9c0.1-0.1,0.1-0.1,0.1-0.2
	C10.2,8,10.5,7,10.5,6.1C10.5,3.4,8.4,1.3,5.8,1.3z M5.8,10.5c-2.4,0-4.4-2-4.4-4.4c0-2.4,1.9-4.3,4.2-4.4c0,0,0,0,0,0V6h0l3.7,2.7
	c0,0,0,0,0,0C8.5,9.8,7.2,10.5,5.8,10.5z"/>
</svg>
